<svg xmlns="http://www.w3.org/2000/svg" viewBox="0 0 560 400" role="img" aria-labelledby="title desc">
  <title id="title">Empty chat state</title>
  <desc id="desc">An empty chat list illustration with a soft inbox card.</desc>
  <defs>
    <linearGradient id="bg" x1="0%" y1="0%" x2="100%" y2="100%">
      <stop offset="0%" stop-color="#f8fbff" />
      <stop offset="100%" stop-color="#eaf2fd" />
    </linearGradient>
  </defs>
  <rect width="560" height="400" rx="32" fill="url(#bg)" />
  <circle cx="128" cy="108" r="56" fill="#dce8fb" />
  <circle cx="446" cy="302" r="68" fill="#d9e9ff" opacity="0.9" />
  <rect x="126" y="88" width="308" height="220" rx="28" fill="#ffffff" stroke="#d2dff2" stroke-width="3" />
  <rect x="174" y="136" width="212" height="24" rx="12" fill="#d9e6f7" />
  <rect x="174" y="180" width="168" height="18" rx="9" fill="#e5edf8" />
  <rect x="174" y="213" width="190" height="18" rx="9" fill="#e5edf8" />
  <path d="M216 272h128c14 0 22-16 14-27l-31-44c-7-10-21-10-28 0l-20 28-26-36c-7-10-21-10-28 0l-53 75c-8 11 0 26 14 26z" fill="#2c6cb5" opacity="0.9" />
</svg>
